<?xml version="1.0" encoding="UTF-8" standalone="no"?>
<svg
   xmlns:dc="http://purl.org/dc/elements/1.1/"
   xmlns:cc="http://creativecommons.org/ns#"
   xmlns:rdf="http://www.w3.org/1999/02/22-rdf-syntax-ns#"
   xmlns:svg="http://www.w3.org/2000/svg"
   xmlns="http://www.w3.org/2000/svg"
   version="1.1"
   id="svg3926"
   viewBox="0 0 300 76.841585"
   height="76.841583"
   width="300">
  <defs
     id="defs3928">
    <clipPath
       id="clipPath3436"
       clipPathUnits="userSpaceOnUse">
      <path
         id="path3438"
         d="m 0,0 119.62,0 0,30.0425 L 0,30.0425 0,0 Z" />
    </clipPath>
    <clipPath
       id="clipPath3464"
       clipPathUnits="userSpaceOnUse">
      <path
         id="path3466"
         d="m 0,30.042 119.62,0 L 119.62,0 0,0 0,30.042 Z" />
    </clipPath>
  </defs>
  <metadata
     id="metadata3931">
    <rdf:RDF>
      <cc:Work
         rdf:about="">
        <dc:format>image/svg+xml</dc:format>
        <dc:type
           rdf:resource="http://purl.org/dc/dcmitype/StillImage" />
        <dc:title></dc:title>
      </cc:Work>
    </rdf:RDF>
  </metadata>
  <g
     transform="translate(-175.7723,-492.41312)"
     id="layer1">
    <g
       id="g3432"
       transform="matrix(2.4912368,0,0,-2.4912368,176.7723,568.25486)">
      <g
         clip-path="url(#clipPath3436)"
         id="g3434">
        <g
           transform="translate(86.8838,29.7607)"
           id="g3440">
          <path
             id="path3442"
             style="fill:#00377e;fill-opacity:1;fill-rule:nonzero;stroke:none"
             d="m 0,0 -9.978,0 -11.253,-29.494 9.983,0 L 0,0 Z" />
        </g>
        <g
           transform="translate(72.6348,29.7607)"
           id="g3444">
          <path
             id="path3446"
             style="fill:#00377e;fill-opacity:1;fill-rule:nonzero;stroke:none"
             d="m 0,0 -2.303,-6.183 -15.337,0 -2.007,-5.265 13.994,0 -2.334,-5.937 -13.926,0 -2.198,-5.765 15.407,0 -2.493,-6.344 -24.364,0 L -24.313,0 0,0 Z" />
        </g>
        <g
           transform="translate(11.3085,29.7603)"
           id="g3448">
          <path
             id="path3450"
             style="fill:#00377e;fill-opacity:1;fill-rule:nonzero;stroke:none"
             d="m 0,0 -11.309,-29.494 11.347,0 2.179,5.659 -4.345,12.29 L 10.07,-3.348 11.351,0 0,0 Z" />
        </g>
        <g
           transform="translate(35.0864,0.2666)"
           id="g3452">
          <path
             id="path3454"
             style="fill:#00377e;fill-opacity:1;fill-rule:nonzero;stroke:none"
             d="m 0,0 -12.672,0 -6.004,17.932 12.29,0 L 0,0 Z" />
        </g>
        <g
           transform="translate(46.1758,29.7607)"
           id="g3456">
          <path
             id="path3458"
             style="fill:#c8006b;fill-opacity:1;fill-rule:nonzero;stroke:none"
             d="m 0,0 -12.612,0 -17.154,-11.562 12.291,0 L 0,0 Z" />
        </g>
        <g
           id="g3460">
          <g
             clip-path="url(#clipPath3464)"
             id="g3462">
            <g
               transform="translate(110.0342,20.6392)"
               id="g3468">
              <path
                 id="path3470"
                 style="fill:#00377e;fill-opacity:1;fill-rule:nonzero;stroke:none"
                 d="m 0,0 c 0,0 -0.255,-1.65 -3.171,-8.518 0,0 -0.673,-1.525 -1.355,-2.566 0,0 -1.416,-2.405 -4.916,-2.643 0,0 -2.359,-0.211 -4.827,-0.019 0,0 -3.258,-0.112 -2.559,2.892 l 0.623,2.041 c 0,0 1.678,4.686 3.149,7.769 1.466,3.086 3.721,3.444 4.779,3.633 0,0 3.11,0.245 5.85,0.041 0,0 3.008,-0.082 2.427,-2.63 m -19.577,-20.38 0,0 c 3.728,-0.471 10.042,-0.156 10.042,-0.156 8.069,0.131 11.18,4.08 11.18,4.08 1.607,1.48 3.212,4.91 3.212,4.91 2.06,4.343 3.83,9.57 3.83,9.57 C 9.611,0.727 9.575,2.687 9.575,2.687 9.709,4.712 8.465,6.32 8.465,6.32 6.704,9.196 1.75,9.249 1.75,9.249 c -3.599,0.337 -9.942,0.016 -9.942,0.016 -6.149,-0.16 -9.172,-2.97 -9.172,-2.97 -2.919,-2.326 -4.464,-6.319 -4.464,-6.319 l -1.62,-3.806 c -1.761,-4.425 -2.767,-8.167 -2.767,-8.167 0,0 -2.334,-7.471 6.638,-8.383" />
            </g>
          </g>
        </g>
      </g>
    </g>
  </g>
</svg>
